<?xml version="1.0" encoding="UTF-8"?>
<svg xmlns="http://www.w3.org/2000/svg" xmlns:xlink="http://www.w3.org/1999/xlink" width="923pt" height="466pt" viewBox="0 0 923 466" version="1.1">
<g id="surface1">
<path style=" stroke:none;fill-rule:nonzero;fill:rgb(18.431373%,18.039216%,25.490196%);fill-opacity:1;" d="M 740.097656 93.148438 L 672.5 93.148438 C 669.609375 93.144531 667.261719 90.792969 667.257812 87.894531 L 667.257812 63.386719 C 667.257812 41.800781 684.738281 24.296875 706.300781 24.296875 C 727.863281 24.296875 745.339844 41.800781 745.339844 63.386719 L 745.339844 87.894531 C 745.335938 90.792969 742.992188 93.144531 740.097656 93.148438 Z M 740.097656 93.148438 "/>
<path style=" stroke:none;fill-rule:nonzero;fill:rgb(62.745098%,38.039216%,41.568627%);fill-opacity:1;" d="M 634.972656 450.324219 L 621.289062 446.214844 L 630.601562 391.40625 L 650.800781 397.472656 Z M 634.972656 450.324219 "/>
<path style=" stroke:none;fill-rule:nonzero;fill:rgb(18.431373%,18.039216%,25.490196%);fill-opacity:1;" d="M 634.484375 464.65625 L 590.355469 451.40625 L 590.523438 450.847656 C 593.367188 441.347656 603.363281 435.957031 612.847656 438.808594 L 612.851562 438.808594 L 639.804688 446.898438 Z M 634.484375 464.65625 "/>
<path style=" stroke:none;fill-rule:nonzero;fill:rgb(62.745098%,38.039216%,41.568627%);fill-opacity:1;" d="M 794.382812 450.789062 L 780.09375 450.789062 L 773.296875 395.605469 L 794.386719 395.609375 Z M 794.382812 450.789062 "/>
<path style=" stroke:none;fill-rule:nonzero;fill:rgb(18.431373%,18.039216%,25.490196%);fill-opacity:1;" d="M 798.027344 464.65625 L 751.953125 464.65625 L 751.953125 464.070312 C 751.953125 454.15625 759.984375 446.117188 769.886719 446.117188 L 798.027344 446.117188 Z M 798.027344 464.65625 "/>
<path style=" stroke:none;fill-rule:nonzero;fill:rgb(62.745098%,38.039216%,41.568627%);fill-opacity:1;" d="M 736.496094 64.242188 C 736.496094 80.070312 723.675781 92.90625 707.871094 92.90625 C 692.0625 92.90625 679.246094 80.070312 679.246094 64.242188 C 679.246094 48.414062 692.0625 35.582031 707.871094 35.582031 C 723.675781 35.582031 736.496094 48.414062 736.496094 64.242188 Z M 736.496094 64.242188 "/>
<path style=" stroke:none;fill-rule:nonzero;fill:rgb(18.431373%,18.039216%,25.490196%);fill-opacity:1;" d="M 673.730469 418.296875 C 673.214844 418.296875 672.699219 418.230469 672.203125 418.101562 L 614.839844 403.164062 C 613.15625 402.730469 611.734375 401.59375 610.929688 400.046875 C 610.125 398.496094 610.011719 396.683594 610.621094 395.046875 C 645.394531 301.390625 673.871094 220.605469 670.054688 180.574219 C 664.660156 169.695312 661.902344 157.695312 662.011719 145.550781 L 662.421875 105.082031 C 662.445312 102.683594 663.550781 100.429688 665.429688 98.941406 C 667.308594 97.457031 669.753906 96.902344 672.089844 97.433594 L 736.261719 111.976562 L 736.628906 113.191406 C 741.753906 130.433594 741.238281 148.863281 735.15625 165.796875 C 772.988281 199.992188 798.355469 312.265625 812.988281 400.578125 C 813.453125 403.453125 811.851562 406.273438 809.144531 407.335938 L 808.960938 407.382812 L 763.964844 411.835938 C 762.375 412.425781 760.609375 412.332031 759.085938 411.578125 C 757.566406 410.824219 756.421875 409.46875 755.929688 407.839844 L 717.273438 280.101562 L 679.675781 413.804688 C 678.917969 416.457031 676.488281 418.289062 673.730469 418.296875 Z M 673.730469 418.296875 "/>
<path style=" stroke:none;fill-rule:nonzero;fill:rgb(18.431373%,18.039216%,25.490196%);fill-opacity:1;" d="M 735.078125 65.140625 L 697.289062 65.140625 C 695.816406 65.136719 694.578125 64.042969 694.394531 62.582031 L 693.910156 58.664062 C 693.8125 57.890625 693.214844 57.273438 692.445312 57.148438 C 691.671875 57.027344 690.914062 57.433594 690.585938 58.140625 L 688.109375 63.457031 C 687.628906 64.480469 686.601562 65.136719 685.472656 65.140625 L 679.726562 65.140625 C 678.910156 65.140625 678.125 64.792969 677.574219 64.183594 C 677.019531 63.574219 676.75 62.761719 676.828125 61.941406 L 679.09375 38.273438 C 679.191406 37.242188 679.824219 36.339844 680.757812 35.894531 C 698.0625 27.804688 715.617188 27.816406 732.921875 35.925781 C 733.8125 36.347656 734.433594 37.1875 734.570312 38.167969 L 737.960938 61.804688 C 738.078125 62.644531 737.832031 63.492188 737.28125 64.132812 C 736.726562 64.773438 735.921875 65.140625 735.078125 65.140625 Z M 735.078125 65.140625 "/>
<path style=" stroke:none;fill-rule:nonzero;fill:rgb(80%,80%,80%);fill-opacity:1;" d="M 649.808594 425.660156 L 290.960938 395.5 C 285.515625 395.035156 281.46875 390.242188 281.921875 384.785156 L 295.46875 223.152344 C 295.933594 217.695312 300.722656 213.644531 306.171875 214.097656 L 665.019531 244.261719 C 670.464844 244.726562 674.511719 249.519531 674.0625 254.976562 L 660.511719 416.609375 C 660.046875 422.0625 655.257812 426.113281 649.808594 425.660156 Z M 649.808594 425.660156 "/>
<path style=" stroke:none;fill-rule:nonzero;fill:rgb(100%,100%,100%);fill-opacity:1;" d="M 644.878906 414.710938 L 297.644531 385.519531 C 294.761719 385.273438 292.621094 382.738281 292.859375 379.851562 L 305.433594 229.84375 C 305.679688 226.957031 308.214844 224.8125 311.101562 225.054688 L 658.332031 254.238281 C 661.21875 254.484375 663.359375 257.023438 663.121094 259.914062 L 650.546875 409.917969 C 650.300781 412.804688 647.765625 414.949219 644.878906 414.710938 Z M 644.878906 414.710938 "/>
<path style=" stroke:none;fill-rule:nonzero;fill:rgb(24.705882%,23.921569%,33.72549%);fill-opacity:1;" d="M 555.4375 358.398438 C 555.460938 358.398438 555.480469 358.402344 555.503906 358.402344 C 579.269531 358.886719 599.328125 340.792969 601.3125 317.070312 C 603.304688 293.355469 586.542969 272.164062 563.027344 268.675781 C 562.746094 268.632812 562.457031 268.707031 562.230469 268.886719 C 562.007812 269.0625 561.867188 269.324219 561.84375 269.609375 L 554.496094 357.285156 C 554.449219 357.851562 554.871094 358.351562 555.4375 358.398438 Z M 555.4375 358.398438 "/>
<path style=" stroke:none;fill-rule:nonzero;fill:rgb(90.196078%,90.196078%,90.196078%);fill-opacity:1;" d="M 525.660156 280.542969 C 526.007812 280.570312 526.332031 280.738281 526.5625 281.007812 L 554.488281 314.097656 C 554.714844 314.363281 554.824219 314.710938 554.792969 315.0625 L 551.277344 357.015625 C 551.25 357.378906 551.070312 357.714844 550.78125 357.941406 C 550.492188 358.167969 550.125 358.265625 549.761719 358.214844 C 532.746094 355.6875 518.621094 343.734375 513.296875 327.359375 C 507.96875 310.980469 512.355469 292.996094 524.621094 280.917969 C 524.882812 280.660156 525.242188 280.519531 525.609375 280.539062 Z M 525.660156 280.542969 "/>
<path style=" stroke:none;fill-rule:nonzero;fill:rgb(42.352941%,38.823529%,100%);fill-opacity:1;" d="M 557.417969 267.90625 C 557.753906 267.933594 558.066406 268.089844 558.292969 268.339844 C 558.539062 268.613281 558.660156 268.972656 558.628906 269.335938 L 555.457031 307.1875 C 555.410156 307.722656 555.050781 308.175781 554.539062 308.339844 C 554.03125 308.503906 553.472656 308.34375 553.132812 307.933594 L 528.757812 279.0625 C 528.523438 278.785156 528.414062 278.421875 528.453125 278.058594 C 528.492188 277.699219 528.679688 277.371094 528.96875 277.148438 C 537.117188 270.957031 547.109375 267.699219 557.335938 267.902344 C 557.363281 267.902344 557.390625 267.902344 557.417969 267.90625 Z M 557.417969 267.90625 "/>
<path style=" stroke:none;fill-rule:nonzero;fill:rgb(42.352941%,38.823529%,100%);fill-opacity:1;" d="M 535.988281 375.277344 C 535.617188 379.738281 531.707031 383.046875 527.25 382.671875 C 522.796875 382.300781 519.488281 378.382812 519.863281 373.921875 C 520.238281 369.460938 524.152344 366.152344 528.601562 366.523438 C 533.054688 366.902344 536.359375 370.820312 535.988281 375.277344 Z M 535.988281 375.277344 "/>
<path style=" stroke:none;fill-rule:nonzero;fill:rgb(24.705882%,23.921569%,33.72549%);fill-opacity:1;" d="M 559.03125 377.214844 C 558.65625 381.671875 554.742188 384.984375 550.289062 384.609375 C 545.835938 384.238281 542.53125 380.316406 542.902344 375.855469 C 543.277344 371.398438 547.1875 368.085938 551.644531 368.460938 C 556.09375 368.839844 559.398438 372.753906 559.03125 377.214844 Z M 559.03125 377.214844 "/>
<path style=" stroke:none;fill-rule:nonzero;fill:rgb(90.196078%,90.196078%,90.196078%);fill-opacity:1;" d="M 582.070312 379.152344 C 581.699219 383.609375 577.785156 386.921875 573.328125 386.546875 C 568.875 386.171875 565.566406 382.253906 565.941406 377.792969 C 566.316406 373.335938 570.230469 370.023438 574.683594 370.398438 C 579.132812 370.777344 582.4375 374.695312 582.070312 379.152344 Z M 582.070312 379.152344 "/>
<path style=" stroke:none;fill-rule:nonzero;fill:rgb(90.196078%,90.196078%,90.196078%);fill-opacity:1;" d="M 438.21875 280.769531 L 364.234375 274.550781 C 361.203125 274.296875 358.542969 276.546875 358.289062 279.585938 C 358.03125 282.617188 360.28125 285.28125 363.3125 285.539062 L 437.300781 291.757812 C 440.332031 292.011719 442.992188 289.757812 443.25 286.726562 C 443.503906 283.691406 441.253906 281.023438 438.21875 280.769531 Z M 438.21875 280.769531 "/>
<path style=" stroke:none;fill-rule:nonzero;fill:rgb(90.196078%,90.196078%,90.196078%);fill-opacity:1;" d="M 435.703125 310.792969 L 361.71875 304.574219 C 359.128906 304.351562 356.738281 305.972656 355.980469 308.457031 C 355.222656 310.949219 356.308594 313.625 358.585938 314.886719 C 359.261719 315.269531 360.015625 315.5 360.796875 315.5625 L 434.78125 321.78125 C 437.816406 322.035156 440.476562 319.785156 440.730469 316.746094 C 440.988281 313.714844 438.734375 311.050781 435.703125 310.792969 Z M 435.703125 310.792969 "/>
<path style=" stroke:none;fill-rule:nonzero;fill:rgb(90.196078%,90.196078%,90.196078%);fill-opacity:1;" d="M 433.1875 340.816406 L 359.199219 334.597656 C 356.167969 334.34375 353.507812 336.597656 353.25 339.628906 C 352.996094 342.667969 355.246094 345.332031 358.28125 345.585938 L 432.265625 351.808594 C 435.296875 352.0625 437.960938 349.808594 438.210938 346.773438 C 438.464844 343.738281 436.21875 341.070312 433.1875 340.816406 Z M 433.1875 340.816406 "/>
<path style=" stroke:none;fill-rule:nonzero;fill:rgb(42.352941%,38.823529%,100%);fill-opacity:1;" d="M 417.164062 279 L 364.234375 274.550781 C 361.203125 274.296875 358.542969 276.546875 358.289062 279.585938 C 358.03125 282.617188 360.28125 285.28125 363.3125 285.539062 L 415.144531 289.894531 C 417.351562 289.195312 419 287.335938 419.425781 285.054688 C 419.847656 282.773438 418.980469 280.445312 417.164062 279 Z M 417.164062 279 "/>
<path style=" stroke:none;fill-rule:nonzero;fill:rgb(42.352941%,38.823529%,100%);fill-opacity:1;" d="M 390.203125 306.96875 L 361.71875 304.574219 C 359.128906 304.351562 356.738281 305.972656 355.980469 308.457031 C 355.222656 310.949219 356.308594 313.625 358.585938 314.886719 L 384.746094 317.082031 C 388.195312 317.371094 391.226562 314.808594 391.519531 311.355469 C 391.660156 309.777344 391.191406 308.207031 390.203125 306.96875 Z M 390.203125 306.96875 "/>
<path style=" stroke:none;fill-rule:nonzero;fill:rgb(42.352941%,38.823529%,100%);fill-opacity:1;" d="M 427.65625 340.351562 L 359.199219 334.597656 C 356.167969 334.34375 353.507812 336.597656 353.25 339.628906 C 352.996094 342.667969 355.246094 345.332031 358.28125 345.585938 L 427.179688 351.378906 C 429.253906 350.375 430.613281 348.3125 430.714844 346.007812 C 430.8125 343.703125 429.640625 341.53125 427.65625 340.351562 Z M 427.65625 340.351562 "/>
<path style=" stroke:none;fill-rule:nonzero;fill:rgb(62.745098%,38.039216%,41.568627%);fill-opacity:1;" d="M 618.816406 251.871094 C 622.425781 251.03125 625.480469 248.632812 627.15625 245.324219 C 628.832031 242.015625 628.957031 238.132812 627.496094 234.722656 L 667.84375 128.738281 L 647.242188 123.65625 L 610.183594 228.378906 C 604.496094 231.277344 601.875 237.972656 604.078125 243.964844 C 606.285156 249.957031 612.617188 253.351562 618.816406 251.871094 Z M 618.816406 251.871094 "/>
<path style=" stroke:none;fill-rule:nonzero;fill:rgb(18.431373%,18.039216%,25.490196%);fill-opacity:1;" d="M 669.777344 150.101562 C 668.871094 150.101562 667.976562 149.902344 667.152344 149.515625 L 641.476562 137.484375 C 639.84375 136.71875 638.625 135.277344 638.136719 133.542969 C 637.648438 131.804688 637.941406 129.9375 638.9375 128.4375 L 654.539062 104.839844 C 656.34375 101 659.605469 98.039062 663.601562 96.628906 C 669.753906 94.398438 676.636719 96.101562 681.050781 100.941406 C 685.460938 105.777344 686.53125 112.792969 683.753906 118.726562 L 675.71875 145.675781 C 674.929688 148.300781 672.515625 150.101562 669.777344 150.101562 Z M 669.777344 150.101562 "/>
<path style=" stroke:none;fill-rule:nonzero;fill:rgb(62.745098%,38.039216%,41.568627%);fill-opacity:1;" d="M 653.210938 253.675781 C 656.914062 253.554688 660.375 251.796875 662.65625 248.871094 C 664.941406 245.953125 665.8125 242.167969 665.046875 238.542969 L 730.53125 145.070312 L 710.960938 134.570312 L 649.285156 228.957031 C 643.152344 230.695312 639.28125 236.757812 640.28125 243.0625 C 641.285156 249.367188 646.839844 253.929688 653.210938 253.675781 Z M 653.210938 253.675781 "/>
<path style=" stroke:none;fill-rule:nonzero;fill:rgb(18.431373%,18.039216%,25.490196%);fill-opacity:1;" d="M 724.109375 163.851562 C 722.792969 163.851562 721.507812 163.429688 720.445312 162.648438 L 697.585938 145.855469 C 696.132812 144.789062 695.214844 143.144531 695.070312 141.34375 C 694.929688 139.542969 695.578125 137.777344 696.84375 136.492188 L 716.722656 116.367188 C 719.234375 112.953125 723.007812 110.683594 727.203125 110.074219 C 733.671875 109.082031 740.09375 112.085938 743.484375 117.6875 C 746.875 123.292969 746.5625 130.382812 742.695312 135.664062 L 729.589844 160.542969 C 728.515625 162.574219 726.410156 163.851562 724.109375 163.851562 Z M 724.109375 163.851562 "/>
<path style=" stroke:none;fill-rule:nonzero;fill:rgb(100%,72.156863%,72.156863%);fill-opacity:1;" d="M 309.496094 231.261719 C 306.234375 230.078125 303.664062 227.507812 302.476562 224.246094 C 301.289062 220.980469 301.605469 217.359375 303.34375 214.355469 L 276.121094 182.800781 L 297.582031 180 L 320.144531 210.398438 C 325.101562 213.726562 326.789062 220.246094 324.074219 225.5625 C 321.359375 230.886719 315.097656 233.335938 309.496094 231.261719 Z M 309.496094 231.261719 "/>
<path style=" stroke:none;fill-rule:nonzero;fill:rgb(100%,72.156863%,72.156863%);fill-opacity:1;" d="M 156.054688 237.933594 C 153.765625 235.316406 152.753906 231.828125 153.28125 228.398438 C 153.8125 224.964844 155.839844 221.945312 158.804688 220.152344 L 150.152344 179.363281 L 170.300781 187.269531 L 175.429688 224.792969 C 178.171875 230.101562 176.511719 236.628906 171.566406 239.976562 C 166.625 243.332031 159.960938 242.453125 156.054688 237.933594 Z M 156.054688 237.933594 "/>
<path style=" stroke:none;fill-rule:nonzero;fill:rgb(100%,72.156863%,72.156863%);fill-opacity:1;" d="M 253.558594 450.511719 L 267.84375 450.507812 L 274.640625 395.328125 L 253.554688 395.328125 Z M 253.558594 450.511719 "/>
<path style=" stroke:none;fill-rule:nonzero;fill:rgb(18.431373%,18.039216%,25.490196%);fill-opacity:1;" d="M 249.914062 445.839844 L 278.050781 445.839844 C 287.953125 445.839844 295.980469 453.875 295.980469 463.792969 L 295.980469 464.375 L 249.914062 464.378906 Z M 249.914062 445.839844 "/>
<path style=" stroke:none;fill-rule:nonzero;fill:rgb(100%,72.156863%,72.156863%);fill-opacity:1;" d="M 183.632812 450.511719 L 197.917969 450.507812 L 204.714844 395.328125 L 183.628906 395.328125 Z M 183.632812 450.511719 "/>
<path style=" stroke:none;fill-rule:nonzero;fill:rgb(18.431373%,18.039216%,25.490196%);fill-opacity:1;" d="M 179.988281 445.839844 L 208.125 445.839844 C 218.03125 445.839844 226.054688 453.875 226.054688 463.792969 L 226.054688 464.375 L 179.988281 464.378906 Z M 179.988281 445.839844 "/>
<path style=" stroke:none;fill-rule:nonzero;fill:rgb(18.431373%,18.039216%,25.490196%);fill-opacity:1;" d="M 251.859375 421.699219 C 249.210938 421.6875 246.980469 419.714844 246.652344 417.082031 L 232.039062 296.503906 C 231.9375 295.648438 231.226562 294.996094 230.367188 294.964844 C 229.507812 294.933594 228.757812 295.53125 228.589844 296.378906 L 205.355469 414.714844 C 204.867188 417.171875 202.714844 418.949219 200.207031 418.953125 L 183.15625 418.953125 C 181.75 418.953125 180.398438 418.386719 179.410156 417.378906 C 178.429688 416.375 177.886719 415.011719 177.914062 413.601562 L 181.328125 231.324219 L 181.605469 231.160156 C 206.484375 216.324219 235.808594 215.359375 271.253906 228.195312 L 271.628906 228.332031 L 277.324219 415.480469 C 277.402344 418.355469 275.164062 420.765625 272.289062 420.886719 L 252.066406 421.695312 C 251.996094 421.699219 251.929688 421.699219 251.859375 421.699219 Z M 251.859375 421.699219 "/>
<path style=" stroke:none;fill-rule:nonzero;fill:rgb(100%,72.156863%,72.156863%);fill-opacity:1;" d="M 261.015625 35.542969 C 261.015625 51.375 248.199219 64.207031 232.394531 64.207031 C 216.582031 64.207031 203.765625 51.375 203.765625 35.542969 C 203.765625 19.71875 216.582031 6.882812 232.394531 6.882812 C 248.199219 6.882812 261.015625 19.71875 261.015625 35.542969 Z M 261.015625 35.542969 "/>
<path style=" stroke:none;fill-rule:nonzero;fill:rgb(42.352941%,38.823529%,100%);fill-opacity:1;" d="M 298.636719 208.796875 C 297.164062 209.003906 295.667969 208.578125 294.523438 207.617188 L 265.171875 182.957031 C 255.136719 174.527344 248.503906 162.730469 246.503906 149.769531 L 239.898438 107.058594 C 237.699219 101.425781 238.675781 95.042969 242.453125 90.324219 C 246.230469 85.605469 252.234375 83.261719 258.203125 84.183594 C 264.175781 85.101562 269.199219 89.140625 271.386719 94.78125 L 285.355469 161.890625 L 307.652344 192.195312 C 308.953125 193.976562 309.011719 196.386719 307.789062 198.226562 L 302.257812 206.515625 C 301.664062 207.402344 300.816406 208.089844 299.820312 208.480469 C 299.441406 208.632812 299.042969 208.738281 298.636719 208.796875 Z M 298.636719 208.796875 "/>
<path style=" stroke:none;fill-rule:nonzero;fill:rgb(42.352941%,38.823529%,100%);fill-opacity:1;" d="M 156.179688 210.976562 C 154.933594 210.15625 154.09375 208.847656 153.867188 207.371094 L 148.113281 169.441406 C 146.140625 156.476562 148.941406 143.234375 155.996094 132.175781 L 179.21875 95.746094 C 181.289062 90.0625 186.226562 85.917969 192.179688 84.871094 C 198.128906 83.832031 204.179688 86.046875 208.054688 90.6875 C 211.929688 95.328125 213.039062 101.6875 210.953125 107.363281 L 177.15625 166.980469 L 173.898438 204.476562 C 173.703125 206.679688 172.152344 208.523438 170.023438 209.097656 L 160.402344 211.65625 C 159.371094 211.929688 158.277344 211.882812 157.273438 211.523438 C 156.886719 211.386719 156.523438 211.203125 156.179688 210.976562 Z M 156.179688 210.976562 "/>
<path style=" stroke:none;fill-rule:nonzero;fill:rgb(42.352941%,38.823529%,100%);fill-opacity:1;" d="M 263.699219 86.441406 C 253.742188 75.507812 239.367188 69.691406 224.617188 70.617188 C 224.136719 70.648438 223.660156 70.683594 223.183594 70.71875 C 209.222656 71.824219 196.414062 78.90625 188.035156 90.144531 C 179.519531 101.542969 176.324219 116.0625 179.265625 129.988281 C 184.816406 156.296875 183.410156 183.601562 175.191406 209.195312 L 167.515625 233.070312 C 167.015625 234.617188 167.261719 236.3125 168.183594 237.65625 C 169.105469 238.996094 170.601562 239.832031 172.222656 239.921875 L 211.480469 242.035156 L 221.527344 224.660156 L 221.527344 242.578125 L 269.238281 245.144531 C 269.332031 245.148438 269.425781 245.152344 269.519531 245.152344 C 270.988281 245.152344 272.382812 244.539062 273.375 243.464844 C 274.367188 242.386719 274.867188 240.941406 274.75 239.476562 L 269.355469 172.519531 L 276.117188 127.042969 C 278.335938 112.324219 273.769531 97.394531 263.699219 86.441406 Z M 263.699219 86.441406 "/>
<path style=" stroke:none;fill-rule:nonzero;fill:rgb(18.431373%,18.039216%,25.490196%);fill-opacity:1;" d="M 212.496094 62.90625 C 215.148438 64.433594 225.621094 65.445312 226.367188 62.476562 L 226.382812 62.410156 C 226.90625 60.238281 226.472656 57.964844 226.324219 55.734375 C 226.175781 53.5 226.390625 51.050781 227.910156 49.410156 C 230.742188 46.351562 235.777344 47.96875 239.863281 47.199219 C 244.824219 46.089844 248.1875 41.464844 247.71875 36.402344 C 247.660156 35.9375 247.570312 35.472656 247.46875 35.007812 C 246.953125 32.625 247.574219 30.132812 249.164062 28.285156 C 250.746094 26.429688 253.109375 25.429688 255.542969 25.578125 C 259.675781 25.8125 264.140625 27.070312 267.5625 24.003906 C 270.207031 21.628906 270.851562 15.460938 269.6875 12.097656 C 267.738281 6.453125 255.222656 3.496094 249.761719 1.875 C 236.078125 -2.089844 221.339844 0.335938 209.632812 8.464844 C 206.183594 10.902344 202.960938 13.960938 201.488281 17.921875 C 200.019531 21.886719 200.726562 26.886719 204.042969 29.503906 C 198.8125 35.046875 196.925781 42.96875 199.097656 50.28125 C 200.734375 55.566406 208.550781 60.636719 212.496094 62.90625 Z M 212.496094 62.90625 "/>
<path style=" stroke:none;fill-rule:nonzero;fill:rgb(80%,80%,80%);fill-opacity:1;" d="M 921.832031 465.164062 L 1.167969 465.164062 C 0.523438 465.164062 0 464.640625 0 463.996094 C 0 463.351562 0.523438 462.828125 1.167969 462.828125 L 921.832031 462.828125 C 922.476562 462.828125 923 463.351562 923 463.996094 C 923 464.640625 922.476562 465.164062 921.832031 465.164062 Z M 921.832031 465.164062 "/>
<path style=" stroke:none;fill-rule:nonzero;fill:rgb(94.901961%,94.901961%,94.901961%);fill-opacity:1;" d="M 832.929688 255.460938 C 825.644531 256.050781 819.261719 250.613281 818.671875 243.316406 C 818.085938 236.019531 823.519531 229.628906 830.804688 229.042969 C 838.09375 228.453125 844.472656 233.890625 845.0625 241.1875 C 845.644531 248.480469 840.214844 254.875 832.929688 255.460938 Z M 832.765625 253.429688 C 838.929688 252.929688 843.527344 247.527344 843.03125 241.351562 C 842.53125 235.175781 837.132812 230.574219 830.96875 231.070312 C 824.800781 231.570312 820.207031 236.976562 820.703125 243.152344 C 821.199219 249.324219 826.601562 253.925781 832.765625 253.429688 Z M 832.765625 253.429688 "/>
<path style=" stroke:none;fill-rule:nonzero;fill:rgb(94.901961%,94.901961%,94.901961%);fill-opacity:1;" d="M 886.652344 213.296875 C 886.652344 217.800781 883.003906 221.453125 878.507812 221.453125 C 874.011719 221.453125 870.363281 217.800781 870.363281 213.296875 C 870.363281 208.792969 874.011719 205.144531 878.507812 205.144531 C 883.003906 205.144531 886.652344 208.792969 886.652344 213.296875 Z M 886.652344 213.296875 "/>
<path style=" stroke:none;fill-rule:nonzero;fill:rgb(94.901961%,94.901961%,94.901961%);fill-opacity:1;" d="M 922.824219 187.675781 C 922.824219 190.039062 920.910156 191.960938 918.542969 191.960938 C 916.183594 191.960938 914.265625 190.039062 914.265625 187.675781 C 914.265625 185.308594 916.183594 183.390625 918.542969 183.390625 C 920.910156 183.390625 922.824219 185.308594 922.824219 187.675781 Z M 922.824219 187.675781 "/>
<path style=" stroke:none;fill-rule:nonzero;fill:rgb(94.901961%,94.901961%,94.901961%);fill-opacity:1;" d="M 467.722656 159.898438 C 473.886719 155.957031 482.066406 157.761719 486.003906 163.929688 C 489.941406 170.097656 488.140625 178.292969 481.980469 182.234375 C 475.820312 186.175781 467.632812 184.371094 463.699219 178.203125 C 459.769531 172.035156 461.574219 163.847656 467.722656 159.898438 Z M 480.886719 180.515625 C 486.09375 177.179688 487.621094 170.25 484.292969 165.027344 C 480.960938 159.808594 474.035156 158.28125 468.820312 161.617188 C 463.609375 164.953125 462.085938 171.886719 465.414062 177.105469 C 468.75 182.320312 475.667969 183.847656 480.886719 180.515625 Z M 480.886719 180.515625 "/>
<path style=" stroke:none;fill-rule:nonzero;fill:rgb(94.901961%,94.901961%,94.901961%);fill-opacity:1;" d="M 477.84375 116.359375 C 477.84375 120.863281 474.195312 124.519531 469.699219 124.519531 C 465.199219 124.519531 461.554688 120.863281 461.554688 116.359375 C 461.554688 111.855469 465.199219 108.207031 469.699219 108.207031 C 474.195312 108.207031 477.84375 111.855469 477.84375 116.359375 Z M 477.84375 116.359375 "/>
<path style=" stroke:none;fill-rule:nonzero;fill:rgb(94.901961%,94.901961%,94.901961%);fill-opacity:1;" d="M 470.167969 68.9375 C 470.167969 71.300781 468.25 73.222656 465.886719 73.222656 C 463.523438 73.222656 461.609375 71.300781 461.609375 68.9375 C 461.609375 66.570312 463.523438 64.652344 465.886719 64.652344 C 468.25 64.652344 470.167969 66.570312 470.167969 68.9375 Z M 470.167969 68.9375 "/>
<path style=" stroke:none;fill-rule:nonzero;fill:rgb(94.901961%,94.901961%,94.901961%);fill-opacity:1;" d="M 107.296875 310.058594 C 103.183594 304.007812 104.75 295.761719 110.792969 291.644531 C 116.839844 287.527344 125.070312 289.089844 129.183594 295.144531 C 133.296875 301.195312 131.730469 309.441406 125.6875 313.558594 C 119.644531 317.667969 111.417969 316.105469 107.296875 310.058594 Z M 127.503906 296.292969 C 124.023438 291.171875 117.054688 289.84375 111.941406 293.332031 C 106.824219 296.816406 105.503906 303.789062 108.984375 308.910156 C 112.464844 314.03125 119.429688 315.359375 124.542969 311.871094 C 129.652344 308.382812 130.976562 301.414062 127.503906 296.292969 Z M 127.503906 296.292969 "/>
<path style=" stroke:none;fill-rule:nonzero;fill:rgb(94.901961%,94.901961%,94.901961%);fill-opacity:1;" d="M 71.925781 309.339844 C 71.925781 313.84375 68.277344 317.496094 63.777344 317.496094 C 59.28125 317.496094 55.636719 313.84375 55.636719 309.339844 C 55.636719 304.835938 59.28125 301.1875 63.777344 301.1875 C 68.277344 301.1875 71.925781 304.835938 71.925781 309.339844 Z M 71.925781 309.339844 "/>
<path style=" stroke:none;fill-rule:nonzero;fill:rgb(94.901961%,94.901961%,94.901961%);fill-opacity:1;" d="M 20.824219 314.527344 C 20.824219 316.890625 18.910156 318.8125 16.542969 318.8125 C 14.183594 318.8125 12.269531 316.890625 12.269531 314.527344 C 12.269531 312.160156 14.183594 310.242188 16.542969 310.242188 C 18.910156 310.242188 20.824219 312.160156 20.824219 314.527344 Z M 20.824219 314.527344 "/>
</g>
</svg>
