<?xml version="1.0" encoding="UTF-8"?>
<svg xmlns="http://www.w3.org/2000/svg" xmlns:xlink="http://www.w3.org/1999/xlink" width="927pt" height="458pt" viewBox="0 0 927 458" version="1.1">
<g id="surface1">
<path style=" stroke:none;fill-rule:nonzero;fill:rgb(90.196078%,90.196078%,90.196078%);fill-opacity:1;" d="M 312.546875 393.234375 L 301.957031 388.765625 L 294.691406 335.617188 L 197.960938 335.617188 L 190.085938 388.550781 L 180.617188 393.296875 C 179.683594 393.761719 179.195312 394.808594 179.429688 395.828125 C 179.671875 396.839844 180.574219 397.5625 181.625 397.5625 L 311.675781 397.5625 C 312.742188 397.5625 313.667969 396.804688 313.878906 395.757812 C 314.09375 394.703125 313.535156 393.648438 312.546875 393.234375 Z M 312.546875 393.234375 "/>
<path style=" stroke:none;fill-rule:nonzero;fill:rgb(80%,80%,80%);fill-opacity:1;" d="M 456.742188 340.6875 L 37.035156 340.6875 C 16.878906 340.640625 0.5625 324.265625 0.5625 304.085938 L 0.5625 266.355469 L 493.214844 266.355469 L 493.214844 304.085938 C 493.214844 324.265625 476.902344 340.640625 456.742188 340.6875 Z M 456.742188 340.6875 "/>
<path style=" stroke:none;fill-rule:nonzero;fill:rgb(90.196078%,90.196078%,90.196078%);fill-opacity:1;" d="M 493.78125 297.328125 L 0 297.328125 L 0 36.601562 C 0.0234375 16.398438 16.375 0.0234375 36.554688 0 L 457.222656 0 C 477.402344 0.0234375 493.757812 16.398438 493.78125 36.601562 Z M 493.78125 297.328125 "/>
<path style=" stroke:none;fill-rule:nonzero;fill:rgb(100%,100%,100%);fill-opacity:1;" d="M 454.414062 276.492188 L 39.363281 276.492188 C 29.121094 276.480469 20.820312 268.167969 20.808594 257.910156 L 20.808594 39.417969 C 20.820312 29.160156 29.121094 20.847656 39.363281 20.835938 L 454.414062 20.835938 C 464.65625 20.847656 472.960938 29.160156 472.972656 39.417969 L 472.972656 257.910156 C 472.960938 268.167969 464.65625 276.480469 454.414062 276.492188 Z M 454.414062 276.492188 "/>
<path style=" stroke:none;fill-rule:nonzero;fill:rgb(24.705882%,23.921569%,33.72549%);fill-opacity:1;" d="M 271.980469 132.375 C 271.980469 132.410156 271.984375 132.445312 271.984375 132.480469 C 274.363281 169.941406 305.398438 199.101562 342.886719 199.101562 C 380.371094 199.101562 411.40625 169.941406 413.78125 132.480469 C 413.816406 132.03125 413.65625 131.585938 413.34375 131.257812 C 413.042969 130.933594 412.613281 130.742188 412.164062 130.746094 L 273.601562 130.746094 C 272.707031 130.746094 271.980469 131.476562 271.980469 132.375 Z M 271.980469 132.375 "/>
<path style=" stroke:none;fill-rule:nonzero;fill:rgb(90.196078%,90.196078%,90.196078%);fill-opacity:1;" d="M 390.230469 75.257812 C 390.230469 75.8125 390.011719 76.34375 389.621094 76.734375 L 341.378906 125.039062 C 340.988281 125.429688 340.460938 125.648438 339.910156 125.648438 L 273.601562 125.648438 C 273.035156 125.648438 272.480469 125.410156 272.085938 124.992188 C 271.691406 124.566406 271.488281 123.996094 271.523438 123.421875 C 273.242188 96.3125 290.132812 72.519531 315.132812 61.976562 C 340.132812 51.4375 368.9375 55.964844 389.507812 73.671875 C 389.945312 74.054688 390.207031 74.601562 390.230469 75.179688 C 390.230469 75.207031 390.230469 75.230469 390.230469 75.257812 Z M 390.230469 75.257812 "/>
<path style=" stroke:none;fill-rule:nonzero;fill:rgb(42.352941%,38.823529%,100%);fill-opacity:1;" d="M 594.925781 268.085938 C 594.558594 268.476562 594.058594 268.714844 593.53125 268.746094 C 592.953125 268.785156 592.390625 268.578125 591.976562 268.183594 L 548.402344 227.136719 C 547.789062 226.558594 547.585938 225.671875 547.882812 224.882812 C 548.179688 224.089844 548.925781 223.558594 549.765625 223.535156 L 609.273438 221.71875 C 609.84375 221.703125 610.398438 221.917969 610.804688 222.324219 C 611.207031 222.726562 611.429688 223.277344 611.417969 223.847656 C 611.066406 239.996094 605.285156 255.546875 595.011719 267.992188 C 594.984375 268.027344 594.953125 268.058594 594.925781 268.085938 Z M 594.925781 268.085938 "/>
<path style=" stroke:none;fill-rule:nonzero;fill:rgb(42.352941%,38.823529%,100%);fill-opacity:1;" d="M 318.164062 227.566406 C 318.09375 234.621094 312.320312 240.285156 305.273438 240.214844 C 298.226562 240.136719 292.574219 234.359375 292.644531 227.304688 C 292.714844 220.25 298.488281 214.589844 305.535156 214.660156 C 312.578125 214.742188 318.230469 220.511719 318.164062 227.566406 Z M 318.164062 227.566406 "/>
<path style=" stroke:none;fill-rule:nonzero;fill:rgb(24.705882%,23.921569%,33.72549%);fill-opacity:1;" d="M 354.617188 227.941406 C 354.546875 235 348.777344 240.660156 341.726562 240.585938 C 334.679688 240.515625 329.027344 234.734375 329.097656 227.679688 C 329.175781 220.625 334.941406 214.960938 341.988281 215.035156 C 349.03125 215.113281 354.683594 220.890625 354.617188 227.941406 Z M 354.617188 227.941406 "/>
<path style=" stroke:none;fill-rule:nonzero;fill:rgb(90.196078%,90.196078%,90.196078%);fill-opacity:1;" d="M 391.074219 228.316406 C 391 235.371094 385.230469 241.03125 378.183594 240.960938 C 371.140625 240.890625 365.480469 235.109375 365.554688 228.054688 C 365.628906 220.996094 371.398438 215.339844 378.441406 215.410156 C 385.488281 215.488281 391.136719 221.261719 391.074219 228.316406 Z M 391.074219 228.316406 "/>
<path style=" stroke:none;fill-rule:nonzero;fill:rgb(90.196078%,90.196078%,90.196078%);fill-opacity:1;" d="M 206.355469 90.285156 L 89.285156 89.078125 C 84.488281 89.027344 80.558594 92.882812 80.507812 97.683594 C 80.457031 102.492188 84.308594 106.421875 89.109375 106.46875 L 206.175781 107.667969 C 210.972656 107.722656 214.902344 103.871094 214.953125 99.066406 C 215.003906 94.261719 211.152344 90.328125 206.355469 90.285156 Z M 206.355469 90.285156 "/>
<path style=" stroke:none;fill-rule:nonzero;fill:rgb(90.196078%,90.196078%,90.196078%);fill-opacity:1;" d="M 205.863281 137.789062 L 88.796875 136.589844 C 84.703125 136.539062 81.128906 139.363281 80.226562 143.363281 C 79.328125 147.359375 81.339844 151.449219 85.0625 153.164062 C 86.175781 153.6875 87.386719 153.964844 88.617188 153.972656 L 205.691406 155.179688 C 208.792969 155.210938 211.683594 153.585938 213.257812 150.914062 C 214.84375 148.238281 214.878906 144.917969 213.347656 142.210938 C 211.824219 139.503906 208.972656 137.816406 205.863281 137.789062 Z M 205.863281 137.789062 "/>
<path style=" stroke:none;fill-rule:nonzero;fill:rgb(90.196078%,90.196078%,90.196078%);fill-opacity:1;" d="M 205.378906 185.296875 L 88.3125 184.09375 C 83.511719 184.042969 79.582031 187.894531 79.535156 192.699219 C 79.484375 197.503906 83.335938 201.433594 88.132812 201.480469 L 205.203125 202.679688 C 208.304688 202.722656 211.195312 201.09375 212.773438 198.417969 C 214.355469 195.742188 214.390625 192.425781 212.863281 189.71875 C 211.339844 187.007812 208.484375 185.324219 205.378906 185.296875 Z M 205.378906 185.296875 "/>
<path style=" stroke:none;fill-rule:nonzero;fill:rgb(42.352941%,38.823529%,100%);fill-opacity:1;" d="M 173.035156 89.945312 L 89.285156 89.078125 C 84.488281 89.027344 80.558594 92.882812 80.507812 97.683594 C 80.457031 102.492188 84.308594 106.421875 89.109375 106.46875 L 171.117188 107.3125 C 174.511719 105.957031 176.882812 102.839844 177.285156 99.207031 C 177.6875 95.570312 176.054688 92.007812 173.035156 89.945312 Z M 173.035156 89.945312 "/>
<path style=" stroke:none;fill-rule:nonzero;fill:rgb(42.352941%,38.823529%,100%);fill-opacity:1;" d="M 133.871094 137.050781 L 88.796875 136.589844 C 84.703125 136.539062 81.128906 139.363281 80.226562 143.363281 C 79.328125 147.359375 81.339844 151.449219 85.0625 153.164062 L 126.464844 153.59375 C 131.921875 153.644531 136.390625 149.261719 136.449219 143.792969 C 136.488281 141.296875 135.570312 138.882812 133.871094 137.050781 Z M 133.871094 137.050781 "/>
<path style=" stroke:none;fill-rule:nonzero;fill:rgb(42.352941%,38.823529%,100%);fill-opacity:1;" d="M 196.632812 185.207031 L 88.3125 184.09375 C 83.511719 184.042969 79.582031 187.894531 79.535156 192.699219 C 79.484375 197.503906 83.335938 201.433594 88.132812 201.480469 L 197.152344 202.601562 C 200.300781 200.785156 202.195312 197.382812 202.085938 193.746094 C 201.976562 190.109375 199.882812 186.832031 196.632812 185.207031 Z M 196.632812 185.207031 "/>
<path style=" stroke:none;fill-rule:nonzero;fill:rgb(62.745098%,38.039216%,41.568627%);fill-opacity:1;" d="M 649.175781 444.949219 L 636.511719 444.949219 L 630.492188 396.046875 L 649.179688 396.050781 Z M 649.175781 444.949219 "/>
<path style=" stroke:none;fill-rule:nonzero;fill:rgb(18.431373%,18.039216%,25.490196%);fill-opacity:1;" d="M 627.46875 441.324219 L 651.886719 441.324219 L 651.886719 456.71875 L 612.09375 456.71875 C 612.09375 448.21875 618.980469 441.324219 627.46875 441.324219 Z M 627.46875 441.324219 "/>
<path style=" stroke:none;fill-rule:nonzero;fill:rgb(62.745098%,38.039216%,41.568627%);fill-opacity:1;" d="M 782.945312 435.46875 L 770.707031 438.722656 L 752.335938 393.011719 L 770.398438 388.207031 Z M 782.945312 435.46875 "/>
<path style=" stroke:none;fill-rule:nonzero;fill:rgb(18.431373%,18.039216%,25.490196%);fill-opacity:1;" d="M 761.035156 437.550781 L 784.636719 431.269531 L 788.582031 446.148438 L 750.128906 456.382812 C 747.941406 448.164062 752.832031 439.730469 761.035156 437.550781 Z M 761.035156 437.550781 "/>
<path style=" stroke:none;fill-rule:nonzero;fill:rgb(62.745098%,38.039216%,41.568627%);fill-opacity:1;" d="M 730.441406 61.664062 C 730.441406 76.707031 718.261719 88.902344 703.238281 88.902344 C 688.214844 88.902344 676.039062 76.707031 676.039062 61.664062 C 676.039062 46.621094 688.214844 34.429688 703.238281 34.429688 C 718.261719 34.429688 730.441406 46.621094 730.441406 61.664062 Z M 730.441406 61.664062 "/>
<path style=" stroke:none;fill-rule:nonzero;fill:rgb(18.431373%,18.039216%,25.490196%);fill-opacity:1;" d="M 756.074219 424.191406 L 716.359375 345.207031 L 679.128906 259.710938 L 661.300781 332.792969 L 658.570312 419.679688 C 658.503906 422.15625 656.625 424.203125 654.164062 424.476562 C 644.863281 425.570312 629.140625 426.519531 628.292969 420.652344 C 616.6875 340.109375 618.394531 294.316406 621.867188 270.082031 C 625.65625 243.691406 632.152344 236.503906 632.425781 236.214844 L 632.609375 236.015625 L 729.453125 244.882812 L 729.824219 244.917969 L 755.84375 329.390625 L 786.929688 414.640625 C 787.414062 415.96875 787.3125 417.433594 786.65625 418.679688 C 786 419.925781 784.847656 420.839844 783.488281 421.1875 L 761.765625 426.78125 C 761.367188 426.882812 760.957031 426.933594 760.542969 426.933594 C 758.652344 426.933594 756.929688 425.875 756.074219 424.191406 Z M 756.074219 424.191406 "/>
<path style=" stroke:none;fill-rule:nonzero;fill:rgb(62.745098%,38.039216%,41.568627%);fill-opacity:1;" d="M 762.148438 238.042969 L 750.3125 166.933594 L 753.230469 149.328125 C 755.714844 134.347656 753.484375 118.96875 746.851562 105.3125 L 730.507812 182.917969 L 751.402344 241.203125 C 747.984375 244.851562 747.421875 250.34375 750.039062 254.605469 C 752.660156 258.867188 757.800781 260.847656 762.597656 259.4375 C 767.386719 258.027344 770.648438 253.574219 770.546875 248.570312 C 770.4375 243.566406 767.003906 239.253906 762.148438 238.042969 Z M 762.148438 238.042969 "/>
<path style=" stroke:none;fill-rule:nonzero;fill:rgb(62.745098%,38.039216%,41.568627%);fill-opacity:1;" d="M 643.660156 167.40625 L 608.242188 230.171875 C 603.269531 229.644531 598.558594 232.523438 596.746094 237.191406 C 594.9375 241.859375 596.476562 247.164062 600.503906 250.136719 C 604.53125 253.109375 610.050781 253.011719 613.96875 249.894531 C 617.882812 246.785156 619.234375 241.429688 617.257812 236.828125 L 656.8125 189.214844 L 667.96875 110.695312 C 657.078125 121.253906 649.722656 134.941406 646.9375 149.867188 Z M 643.660156 167.40625 "/>
<path style=" stroke:none;fill-rule:nonzero;fill:rgb(24.705882%,23.921569%,33.72549%);fill-opacity:1;" d="M 723.507812 252.371094 L 635.167969 242.714844 C 632.691406 242.441406 630.492188 241.007812 629.242188 238.847656 C 627.992188 236.691406 627.84375 234.066406 628.839844 231.777344 L 643.867188 197.292969 C 648.050781 187.6875 651.054688 177.601562 652.820312 167.273438 L 654.394531 158.011719 C 655.625 150.398438 655.769531 142.652344 654.832031 134.996094 C 654.453125 131.082031 654.625 127.128906 655.351562 123.265625 C 656.742188 115.371094 662.613281 109.023438 670.359375 107.023438 L 686.449219 102.859375 L 686.886719 101.65625 C 687.679688 99.476562 689.714844 97.996094 692.03125 97.925781 C 692.839844 97.890625 693.648438 98.03125 694.390625 98.347656 L 701.941406 101.457031 L 718.453125 93.417969 C 718.980469 93.15625 719.539062 92.976562 720.117188 92.878906 C 723.105469 92.355469 726.03125 94.074219 727.035156 96.941406 L 727.199219 97.417969 L 741.988281 97.589844 C 748.957031 97.679688 754.761719 102.949219 755.53125 109.882812 L 756.617188 119.75 L 736.882812 183.46875 C 731.480469 200.996094 730.140625 219.539062 732.964844 237.660156 L 733.613281 241.761719 C 734.03125 244.421875 733.269531 247.140625 731.519531 249.183594 C 729.777344 251.238281 727.222656 252.421875 724.527344 252.425781 C 724.1875 252.425781 723.847656 252.410156 723.507812 252.371094 Z M 723.507812 252.371094 "/>
<path style=" stroke:none;fill-rule:nonzero;fill:rgb(24.705882%,23.921569%,33.72549%);fill-opacity:1;" d="M 741.570312 113.613281 L 751.46875 112.160156 L 754.488281 115.714844 C 756.085938 117.597656 757.011719 119.964844 757.117188 122.441406 L 758.527344 156.515625 C 758.699219 160.285156 756.914062 163.875 753.816406 166.015625 L 724.976562 186.070312 Z M 741.570312 113.613281 "/>
<path style=" stroke:none;fill-rule:nonzero;fill:rgb(24.705882%,23.921569%,33.72549%);fill-opacity:1;" d="M 644.433594 164.714844 C 642.128906 161.730469 641.519531 157.761719 642.824219 154.226562 L 654.515625 122.191406 C 655.371094 119.867188 656.96875 117.894531 659.070312 116.585938 L 663.019531 114.121094 L 672.011719 118.515625 L 665.8125 192.597656 Z M 644.433594 164.714844 "/>
<path style=" stroke:none;fill-rule:nonzero;fill:rgb(18.431373%,18.039216%,25.490196%);fill-opacity:1;" d="M 713.371094 50.46875 C 705.773438 57.351562 694.941406 61.320312 685.050781 58.617188 C 675.171875 55.917969 667.40625 45.355469 669.777344 35.371094 C 672.144531 25.390625 686.160156 19.746094 693.757812 26.636719 C 707.480469 15.765625 729.550781 17.640625 741.246094 30.675781 C 752.945312 43.707031 752.457031 65.882812 740.203125 78.386719 C 732.964844 85.777344 719.390625 85.382812 712.597656 77.582031 C 705.800781 69.777344 707.25 56.257812 713.371094 50.46875 Z M 713.371094 50.46875 "/>
<path style=" stroke:none;fill-rule:nonzero;fill:rgb(80%,80%,80%);fill-opacity:1;" d="M 925.835938 458 L 503.871094 458 C 503.257812 458 502.757812 457.503906 502.757812 456.890625 C 502.757812 456.277344 503.257812 455.785156 503.871094 455.785156 L 925.835938 455.785156 C 926.449219 455.785156 926.941406 456.277344 926.941406 456.890625 C 926.941406 457.503906 926.449219 458 925.835938 458 Z M 925.835938 458 "/>
<path style=" stroke:none;fill-rule:nonzero;fill:rgb(80%,80%,80%);fill-opacity:1;" d="M 460.671875 398.117188 L 38.707031 398.117188 C 38.09375 398.117188 37.597656 397.617188 37.597656 397.007812 C 37.597656 396.394531 38.09375 395.898438 38.707031 395.898438 L 460.671875 395.898438 C 461.285156 395.898438 461.78125 396.394531 461.78125 397.007812 C 461.78125 397.617188 461.285156 398.117188 460.671875 398.117188 Z M 460.671875 398.117188 "/>
</g>
</svg>
